<?xml version="1.0" encoding="UTF-8" standalone="no"?>
<!DOCTYPE svg PUBLIC "-//W3C//DTD SVG 1.1//EN" "http://www.w3.org/Graphics/SVG/1.1/DTD/svg11.dtd">
<svg width="100%" height="100%" viewBox="0 0 2847 596" version="1.1" xmlns="http://www.w3.org/2000/svg" xmlns:xlink="http://www.w3.org/1999/xlink" xml:space="preserve" xmlns:serif="http://www.serif.com/" style="fill-rule:evenodd;clip-rule:evenodd;stroke-linejoin:round;stroke-miterlimit:2;">
    <g transform="matrix(1,0,0,1,-230.945,-230.945)">
        <g transform="matrix(7.69818,0,0,7.69818,76.9818,76.9818)">
            <g id="SvgjsG1153" transform="matrix(0.77378,0,0,0.77378,4.96004,20)">
                <path d="M80.562,41.754L52.861,41.754L67.299,0L19.437,58.247L47.14,58.247L32.702,100L80.562,41.754Z" style="fill:url(#_Linear1);fill-rule:nonzero;"/>
            </g>
        </g>
        <g transform="matrix(7.69818,0,0,7.69818,76.9818,76.9818)">
            <g id="SvgjsG1154" transform="matrix(1.70479,0,0,1.70479,84.9543,36.1122)">
                <path d="M2.86,18.44L9.14,18.44L9.14,20L1.2,20L1.2,6L2.86,6L2.86,18.44ZM19.64,6L21.3,6L21.3,14.92C21.3,18.36 19.06,20.3 16.22,20.3C13.38,20.3 11.14,18.36 11.14,14.92L11.14,6L12.8,6L12.8,14.92C12.8,17.54 14.36,18.72 16.22,18.72C18.08,18.72 19.64,17.54 19.64,14.92L19.64,6ZM38.28,6L38.28,20L36.58,20L36.58,9.72L31.66,20L30.3,20L25.4,9.74L25.4,20L23.7,20L23.7,6L25.34,6L31,17.72L36.64,6L38.28,6ZM42.34,18.44L49,18.44L49,20L40.68,20L40.68,6L48.82,6L48.82,7.56L42.34,7.56L42.34,12.2L47.38,12.2L47.38,13.72L42.34,13.72L42.34,18.44ZM60.86,6L62.52,6L62.52,20L61.24,20L52.76,9.04L52.76,20L51.1,20L51.1,6L52.38,6L60.86,16.98L60.86,6ZM66.58,18.44L73.24,18.44L73.24,20L64.92,20L64.92,6L73.06,6L73.06,7.56L66.58,7.56L66.58,12.2L71.62,12.2L71.62,13.72L66.58,13.72L66.58,18.44ZM86.44,20L84.46,20L80.44,14.24L76.42,20L74.44,20L79.44,12.82L74.68,6L76.66,6L80.42,11.4L84.18,6L86.16,6L81.42,12.82L86.44,20ZM96,18.44L102.28,18.44L102.28,20L94.34,20L94.34,6L96,6L96,18.44ZM105.94,6L105.94,20L104.28,20L104.28,6L105.94,6ZM121.6,12.96C121.9,17.44 118.84,20.2 115.2,20.2C111.46,20.2 108.04,17.24 108.04,13C108.04,8.76 111.54,5.8 115.2,5.8C116.96,5.8 118.56,6.4 119.82,7.46L118.8,8.62C117.82,7.84 116.56,7.38 115.3,7.38C112.44,7.38 109.76,9.7 109.76,13C109.76,16.3 112.36,18.62 115.2,18.62C117.68,18.62 119.66,17.28 120.04,14.4L115.96,14.4L115.96,12.96L121.6,12.96ZM132.5,6L134.16,6L134.16,20L132.5,20L132.5,13.88L125.38,13.88L125.38,20L123.72,20L123.72,6L125.38,6L125.38,12.32L132.5,12.32L132.5,6ZM145.6,6L145.6,7.56L141.72,7.56L141.72,20L140.06,20L140.06,7.56L136.16,7.56L136.16,6L145.6,6ZM149.26,6L149.26,20L147.6,20L147.6,6L149.26,6ZM161.42,6L163.08,6L163.08,20L161.8,20L153.32,9.04L153.32,20L151.66,20L151.66,6L152.94,6L161.42,16.98L161.42,6ZM178.74,12.96C179.04,17.44 175.98,20.2 172.34,20.2C168.6,20.2 165.18,17.24 165.18,13C165.18,8.76 168.68,5.8 172.34,5.8C174.1,5.8 175.7,6.4 176.96,7.46L175.94,8.62C174.96,7.84 173.7,7.38 172.44,7.38C169.58,7.38 166.9,9.7 166.9,13C166.9,16.3 169.5,18.62 172.34,18.62C174.82,18.62 176.8,17.28 177.18,14.4L173.1,14.4L173.1,12.96L178.74,12.96Z" style="fill:url(#_Linear2);fill-rule:nonzero;"/>
            </g>
        </g>
    </g>
    <defs>
        <linearGradient id="_Linear1" x1="0" y1="0" x2="1" y2="0" gradientUnits="userSpaceOnUse" gradientTransform="matrix(61.125,0,0,61.125,19.437,0)"><stop offset="0" style="stop-color:rgb(144,94,38);stop-opacity:1"/><stop offset="0.5" style="stop-color:rgb(245,236,155);stop-opacity:1"/><stop offset="1" style="stop-color:rgb(144,94,38);stop-opacity:1"/></linearGradient>
        <linearGradient id="_Linear2" x1="0" y1="0" x2="1" y2="0" gradientUnits="userSpaceOnUse" gradientTransform="matrix(177.56,0,0,177.56,1.2,5.8)"><stop offset="0" style="stop-color:rgb(144,94,38);stop-opacity:1"/><stop offset="0.5" style="stop-color:rgb(245,236,155);stop-opacity:1"/><stop offset="1" style="stop-color:rgb(144,94,38);stop-opacity:1"/></linearGradient>
    </defs>
</svg>
